<svg width="91" height="82" viewBox="0 0 91 82" fill="none" xmlns="http://www.w3.org/2000/svg">
<path d="M40.5547 44.3401C40.5547 44.3401 38.587 32.496 20.9561 29.6553C20.9561 29.6553 18.1079 39.087 22.091 47.737" stroke="#A791FB" stroke-width="4" stroke-miterlimit="10" stroke-linecap="round"/>
<path d="M34.0703 47.752L27.4343 40.1917" stroke="#A791FB" stroke-width="4" stroke-miterlimit="10" stroke-linecap="round"/>
<path d="M53.3307 45.0916C53.3307 45.0916 55.4287 32.496 73.0595 29.6553C73.0595 29.6553 76.2235 38.3429 72.2404 46.993" stroke="#A791FB" stroke-width="4" stroke-miterlimit="10" stroke-linecap="round"/>
<path d="M62.0947 45.3171L66.5964 40.1917" stroke="#A791FB" stroke-width="4" stroke-miterlimit="10" stroke-linecap="round"/>
<path d="M68.0318 7.19971C62.1795 8.38791 56.904 11.5278 53.0689 16.1053C49.417 20.6008 47.5448 26.2818 47.8082 32.0677C47.8082 32.0677 56.9919 30.0236 62.4555 23.3199C67.9191 16.6163 68.0318 7.19971 68.0318 7.19971Z" fill="#DE5F85" fill-opacity="0.7"/>
<path d="M68.0318 7.19971C62.1795 8.38791 56.904 11.5278 53.0689 16.1053C49.417 20.6008 47.5448 26.2818 47.8082 32.0677C47.8082 32.0677 56.9919 30.0236 62.4555 23.3199C67.9191 16.6163 68.0318 7.19971 68.0318 7.19971Z" stroke="#A52F53"/>
<path d="M27.4418 7.19971C33.2932 8.38498 38.5672 11.5255 42.3972 16.1053C46.046 20.6025 47.9178 26.2823 47.6579 32.0677C47.6579 32.0677 38.4667 30.0236 33.0031 23.3199C27.5395 16.6163 27.4418 7.19971 27.4418 7.19971Z" fill="#DE5F85" fill-opacity="0.7"/>
<path d="M27.4418 7.19971C33.2932 8.38498 38.5672 11.5255 42.3972 16.1053C46.046 20.6025 47.9178 26.2823 47.6579 32.0677C47.6579 32.0677 38.4667 30.0236 33.0031 23.3199C27.5395 16.6163 27.4418 7.19971 27.4418 7.19971Z" stroke="#A52F53"/>
<path d="M47.8082 0C44.025 4.61531 41.9211 10.3785 41.8411 16.3457C41.8369 22.1404 43.9603 27.735 47.8082 32.0676C47.8082 32.0676 53.6476 24.6801 53.6476 16.0301C53.6476 7.38 47.8082 0 47.8082 0Z" fill="#DE5F85"/>
<path d="M47.8082 0C44.025 4.61531 41.9211 10.3785 41.8411 16.3457C41.8369 22.1404 43.9603 27.735 47.8082 32.0676C47.8082 32.0676 53.6476 24.6801 53.6476 16.0301C53.6476 7.38 47.8082 0 47.8082 0Z" stroke="#A52F53"/>
<path d="M47.688 32.0676V42.7543" stroke="#A791FB" stroke-width="4" stroke-miterlimit="10" stroke-linecap="round"/>
<path d="M45.4935 53.2683C45.4935 53.2683 45.734 60.6558 51.7011 61.9409C53.5015 62.2897 55.3574 62.2282 57.1307 61.7611C58.9041 61.294 60.5494 60.4333 61.9444 59.243" stroke="#DE5F85" stroke-width="4" stroke-miterlimit="10" stroke-linecap="round"/>
<path d="M51.7012 61.9106C51.7012 61.9106 48.0112 68.5992 51.7012 72.0112" stroke="#DE5F85" stroke-width="4" stroke-miterlimit="10" stroke-linecap="round"/>
<path d="M21.5649 68.3437C21.5649 68.3437 31.8007 71.4625 34.0703 61.9106" stroke="#DE5F85" stroke-width="4" stroke-miterlimit="10" stroke-linecap="round"/>
<path d="M30.1624 67.645C30.1624 67.645 37.7678 70.6136 35.7763 80.0001" stroke="#DE5F85" stroke-width="4" stroke-miterlimit="10" stroke-linecap="round"/>
<path d="M70.4743 62.1963C70.4743 62.1963 64.2141 69.193 70.4743 75.1676" stroke="#DE5F85" stroke-width="4" stroke-miterlimit="10" stroke-linecap="round"/>
<path d="M16.1614 80.0001H2.22814C2.22814 80.0001 1.96511 70.9292 9.19479 69.7643C9.19479 69.7643 10.1868 62.0837 16.1614 60.3777C16.3675 57.8364 17.2736 55.4019 18.7793 53.3444C20.285 51.2868 22.3314 49.6867 24.6913 48.7216C32.9581 45.3096 37.2042 49.9541 37.2042 49.9541C37.2042 49.9541 40.045 43.6037 46.0196 43.8892C51.9942 44.1748 53.4071 48.1504 53.4071 48.1504C53.4071 48.1504 63.6504 41.6121 72.7439 48.1504C81.8373 54.6887 79.0041 61.9108 79.0041 61.9108C79.0041 61.9108 86.6847 63.474 88.3907 69.4261C90.0966 75.3782 85.5424 79.9475 85.5424 79.9475H69.6025" stroke="#DE5F85" stroke-width="4" stroke-miterlimit="10" stroke-linecap="round"/>
</svg>
